<?xml version="1.0" encoding="utf-8"?>
<!-- Generator: Adobe Illustrator 22.0.1, SVG Export Plug-In . SVG Version: 6.00 Build 0)  -->
<svg version="1.1" id="Слой_1" xmlns="http://www.w3.org/2000/svg" xmlns:xlink="http://www.w3.org/1999/xlink" x="0px" y="0px"
	 viewBox="0 0 1000 1000" style="enable-background:new 0 0 1000 1000;" xml:space="preserve">
<style type="text/css">
	.st0{display:none;}
	.st1{display:inline;}
</style>
<g class="st0">
	<path class="st1" d="M894.9,766.9l-8.9,98c16,13.4,23.9,24.7,23.9,33.7v2.6l-0.5,3.1c-1.1,2.8-2.4,5.2-4.2,7.3
		c-5.2,6.2-14,9.4-26.5,9.4c-16.9,0-37.1-5.4-60.2-16.1c-66.8-26.3-114.4-71.6-143.2-135.9c-25.1-56.4-40.1-139.2-45-248.1H497.4
		v378.8l-0.5,1.6l-1.6,2.6c-2,2.8-4.8,5.4-8.3,7.8c-10.7,7-26.3,10.4-46.7,10.4V521H289.9c-4.8,189.5-68.1,323.3-189.9,401
		l-11.4-11.4C182.3,828.7,231,698.8,234.4,521H85l-6.2-21.2h155.7V337.4c-54.3,29.4-102.9,51.2-145.8,65.4l-8.3-13.4
		c99.3-48.1,177.1-106.8,233.4-175.9l78.3,40.4c-3.8,6.6-11.4,9.8-22.8,9.8c-3.8,0-9.8-0.7-18.1-2c-17.6,14.2-40.4,30.2-68.5,48.2
		l44.6,3.6c-1.7,12.1-13.8,19.2-36.3,21.2v164.9h149.5V210.8l90.8,8.3c-1.4,11.4-12.6,18.1-33.7,20.3v260.4h124l26.5-33.7l72.7,54
		c-6.2,7.3-17.9,11.8-34.8,13.4c0.7,37.7,3.2,73.2,7.8,106.4c12.8,1.4,26.8,3.6,42,6.7c9-13.8,20.6-31.8,34.8-54
		c4.8-7.9,10.4-17.2,16.6-27.5l7.8-12.5l6.7-10.9l65.9,41.5c-2.8,5.5-7.8,8.3-15,8.3c-1.7,0-6.7-0.7-15-2
		c-25.3,20.8-52.1,41.7-80.4,62.7c34.2,10.1,60.6,23.9,78.8,41.5c15.2,14.9,22.8,29.8,22.8,44.6c0,18-8.2,27-24.4,27
		c-5.5,0-11.4-1.9-17.6-5.8c-23.2-36-63-69.6-119.4-100.6c19.1,102.7,65.7,166.9,140.1,192.5c5.2,1.7,9,2.6,11.4,2.6
		c4.4,0,8.2-3.1,10.9-9.4c9.4-22.2,18.1-48.5,26.5-78.8L894.9,766.9z M882.5,478.4c15.6,14.5,23.4,26.2,23.4,34.8
		c0,5.5-2.4,10.4-7.3,14.5c-5.9,5.2-13.8,7.8-23.9,7.8c-16.6,0-36.3-5.8-59.1-17.2c-59.1-26.3-102.7-68.1-130.8-125.6
		c-25.3-52.5-40.7-124.9-46.2-216.9H133.2l-7.3-21.2h503.4l25.9-33.7l72.1,52.4c-5.9,7.3-17.2,11.8-33.7,13.4
		c1.1,28.3,3.8,54.9,8.3,79.9c12.5,1.4,27.8,3.8,46.2,7.3c10.1-13.8,21.8-31.4,35.3-52.9c10.4-16.3,20.6-32.6,30.6-49.3l64.3,44.6
		c-3.1,4.6-8.3,6.7-15.6,6.7h-6.2c-2.8-0.4-5.4-0.8-7.8-1.6c-20,16.3-46.5,35.6-79.4,58.1c30.8,9.4,54.1,22.2,70.1,38.4
		c13.4,13.4,20.3,27.4,20.3,41.5c0,18-8.2,27-24.4,27c-6.6,0-12.5-1.6-17.6-4.7c-21.8-36.7-59.5-69.3-113.1-98
		C723.4,379.3,767,439.7,835.1,465c4.8,2.4,8.9,3.6,11.9,3.6c3,0,6-3.2,8.9-9.8c9-22.4,17.5-47.3,25.4-74.3l9.4,1.1L882.5,478.4z"/>
</g>
<g>
	<path d="M784.2,304l72.8,51.8c-5.2,7.2-16.4,12.7-33.7,16.6v444.8c0,25.4-5.9,44.1-17.6,56.2c-15,15.3-42.3,24.6-82,27.8
		c0-22.1-8.8-37.1-26.4-44.9c-13-5.9-40.9-10.8-83.5-14.7v-11.2h132.3c14,0,21-4.7,21-14.2V663.8H315.9
		C294.4,766,240.5,845.1,154.3,901.1l-11.2-11.2c51.1-47.5,86.6-105.3,106.5-173.3c15-51.8,22.5-117.2,22.5-196.3V343.5
		c-39.1,34.5-78.3,63.2-117.7,85.9l-9.8-10.3C251,337.5,330.7,230.7,383.8,98.9l89.8,24.9c-3.6,8.8-14.3,12.5-32.2,11.2
		c-14,23.8-26.4,43.5-37.1,59.1h204.6l36.1-36.6l65,61.5c-4.9,4.9-16.5,7.8-34.7,8.8c-8.8,9.4-16.8,18.1-23.9,25.9
		c-10.1,10.4-19.7,20-28.8,28.8c-23.1,23.1-44,41.5-62.5,55.2h198.2L784.2,304z M537.6,337.6c12-15.9,25.1-36.1,39.1-60.5
		c11.4-19.8,22.3-40.7,32.7-62.5H388.7c-26,35.2-56.6,70.3-91.8,105.5l41.5,17.6H537.6z M328.1,509v27.8c-0.3,11.4-0.7,22.1-1,32.2
		c-1.3,26.4-3.9,51.1-7.8,74.2h195.8V509H328.1z M328.1,358.2V488h187V358.2H328.1z M767.1,358.2H569.8V488h197.3V358.2z
		 M569.8,643.3h197.3V509H569.8V643.3z"/>
</g>
</svg>
