<?xml version="1.0" encoding="utf-8"?>
<!-- Generator: Adobe Illustrator 23.0.2, SVG Export Plug-In . SVG Version: 6.00 Build 0)  -->
<svg version="1.1" id="Слой_1" xmlns="http://www.w3.org/2000/svg" xmlns:xlink="http://www.w3.org/1999/xlink" x="0px" y="0px"
	 viewBox="0 0 1000 1000" style="enable-background:new 0 0 1000 1000;" xml:space="preserve">
<style type="text/css">
	.st0{fill:#D12222;}
</style>
<g>
	<path class="st0" d="M790.1,328.9l71,50c-6,10.7-18.3,16.1-37.1,16.1H149l-4.9-18.3h437c24.7-42.9,45.6-88.5,62.6-136.7l77.3,29.9
		c-3,6-9.2,8.9-18.8,8.9l-4.9-0.4l-5.8-0.4c-23.2,33.1-52.9,66-88.9,98.7h150.1L790.1,328.9z M758.4,175.2l68.8,48.3
		c-6,11-18,16.5-36.2,16.5H191l-5.8-18.8h290v-88.5l83.1,6.7c-0.3,10.1-11,16.8-32.2,20.1v61.7h196.1L758.4,175.2z M830.8,681v98.7
		c19.7,6,29.5,12.4,29.5,19.2c0,12.5-6.9,21.1-20.6,25.9c-14,4.5-39.3,6.7-76,6.7H565.4c-38.7,0-63.4-4.5-74.2-13.4
		c-11.3-8.9-17-29.9-17-63v-62.6H291.5l-0.4,35.7l-1.8,2.2c-1.5,2.1-3.9,4-7.1,5.8c-9.2,6-22.9,8.9-41.1,8.9V442.4l55.4,24.6h408.8
		l24.1-30.8l67,47.8c-5.4,6.9-16.2,11.9-32.6,15.2v214.5c0,0.6-0.9,1.6-2.7,3.1c-2.4,2.1-5.4,3.9-8.9,5.4
		c-10.4,5.1-23.5,7.6-39.3,7.6v-37.1H525.2v62.6c0,14,1.9,22.5,5.8,25.5c3.6,3,14.9,4.5,34,4.5h197.5c16.1,0,26.7-3,31.7-8.9
		c8.9-10.7,18.9-42.4,29.9-95.2h6.7V681z M474.2,485.3H291.5v84.4h182.7V485.3z M291.5,673.8h182.7v-85.3H291.5V673.8z M319.2,243.5
		c29.2,14.3,50.9,30.5,65.2,48.7c12.2,15.2,18.3,30.1,18.3,44.7c0,11-3,20-8.9,26.8c-5.4,7.1-11.9,10.7-19.7,10.7
		c-8.9,0-16.7-4.2-23.2-12.5c0-39-13.3-76.5-39.8-112.6L319.2,243.5z M712.8,485.3H525.2v84.4h187.7v-84.4H712.8z M525.2,673.8
		h187.7v-85.3H525.2V673.8z"/>
</g>
</svg>
