<?xml version="1.0" encoding="utf-8"?>
<!-- Generator: Adobe Illustrator 22.0.1, SVG Export Plug-In . SVG Version: 6.00 Build 0)  -->
<svg version="1.1" id="Слой_1" xmlns="http://www.w3.org/2000/svg" xmlns:xlink="http://www.w3.org/1999/xlink" x="0px" y="0px"
	 viewBox="0 0 1000 1000" style="enable-background:new 0 0 1000 1000;" xml:space="preserve">
<g>
	<path d="M138.1,492.2c64.7-38.7,126.9-90,187-153.7c60.3-64.7,102.1-125,125.6-181l94.1,20.8c-1.3,7.7-11.4,12.6-30.4,14.7
		c86.4,107,202.3,192.2,347.6,255.2l-2.3,10.6c-21.6,5.2-35.2,18.4-41.1,39.3c-148.6-85.9-254.8-184.9-318.4-297.3
		c-35.7,57.5-85.7,114-150,169.3c-64.9,55.4-133.3,100.4-204.9,135.2L138.1,492.2z M730.8,824.5l37.9-48.4l71.1,50.8
		c-5.9,10.5-18,15.7-36.5,15.7H165.4l-5.1-18h311.1V590H200.4l-5.5-18.5h276.5V447.3H310.2l-4.6-18H584l33.7-41.1l64.1,42.9
		c-4.9,10.8-16.4,16.1-34.6,16.1H522.1v124.2H704l36.5-44.3l69.3,46.6c-5.9,10.8-18.4,16.1-37.3,16.1H522.1v234.4h208.6V824.5z
		 M275.6,624.2c36,20.9,63,43.9,80.8,68.7c14.7,20.9,22.2,41,22.2,60c0,12-2.8,21.9-8.3,29.6c-5.2,7-11.8,10.6-19.8,10.6
		c-8.3,0-15.9-3.7-22.6-11.1c-1.5-50.8-21.7-101.7-60.5-152.8L275.6,624.2z M745.1,650.4c-4.3,8.3-14,11.8-29.1,10.6
		c-39.1,59.8-77.4,106.5-114.8,140.4l-11.5-6.5c26.5-44,53.6-102.4,81.2-175.4L745.1,650.4z"/>
</g>
</svg>
