<?xml version="1.0" encoding="utf-8"?>
<!-- Generator: Adobe Illustrator 23.0.2, SVG Export Plug-In . SVG Version: 6.00 Build 0)  -->
<svg version="1.1" id="Слой_1" xmlns="http://www.w3.org/2000/svg" xmlns:xlink="http://www.w3.org/1999/xlink" x="0px" y="0px"
	 viewBox="0 0 1000 1000" style="enable-background:new 0 0 1000 1000;" xml:space="preserve">
<style type="text/css">
	.st0{fill:#D12222;}
</style>
<g>
	<path class="st0" d="M240.6,620.2c6,23.2,8.9,43.5,8.9,60.8c0,34.6-8.6,64-25.9,88.5c-17,23.8-37.1,35.7-60.3,35.7
		c-7.7,0-14-1.6-18.8-4.9c-6-3.9-8.9-9.7-8.9-17.4c0-12.5,7.3-22.9,21.9-31.3c19.1-10.7,35.1-27.5,48.3-50.5
		c14.9-25.3,22-52.3,21.4-80.9L240.6,620.2L240.6,620.2z M791.5,489.7l62.1,50c-5.4,5.4-15.9,9.2-31.7,11.6
		c-15.9,151.4-43,240.6-81.4,267.7c-20.6,14.6-49,21.9-85.3,21.9c0-15.5-4.3-26.1-13-31.7c-10.1-7.1-32.5-12.7-67-16.5l0.9-13.4
		c8,0.3,25.8,0.9,53.2,1.8c28.3,0.9,46.5,1.3,54.5,1.3c9.5,0,17.6-2.4,24.1-7.1c27.4-22.6,48.5-100.8,63.4-234.6H296.8v21
		c0,1.2-1,2.7-3.1,4.5c-2.4,2.1-5.2,4-8.5,5.8c-9.5,5.4-20.1,8-31.7,8h-8V144.8l60.8,25.9h397.2l37.1-47.4l71.5,50
		c-6,11-19.1,16.5-39.3,16.5h-240v97h136.7l34.4-44.7l68.4,47.8c-6,11-18.3,16.5-37.1,16.5H532.8v96.1h135.8l36.2-45.6l68.8,48.3
		c-5.7,11-18.3,16.5-38,16.5H532.8v99.6h231.4L791.5,489.7z M481.8,189.9h-185v97h185V189.9z M481.8,402.6v-96.1h-185v96.1H481.8z
		 M296.8,421.8v99.6h185v-99.6L296.8,421.8L296.8,421.8z M337.1,609.9c39.6,39.6,59.4,78.6,59.4,117.1c0,16.1-3.4,29.3-10.3,39.8
		c-6.6,9.8-14.2,14.7-22.8,14.7c-8.3,0-15.8-4.6-22.3-13.9c2.1-11.3,3.1-25.3,3.1-42c0-42.3-6.1-79.5-18.3-111.7L337.1,609.9z
		 M449.7,599.6c32.8,17.9,57.3,37.8,73.7,59.9c13.4,18.2,20.1,35.9,20.1,53.2c0,25.6-9.1,38.4-27.3,38.4c-7.1,0-14-3.6-20.6-10.7
		c-1.2-45.9-19.5-90.7-55-134.5L449.7,599.6z M571.2,587.1c42,10.4,73.7,25.3,95.2,44.7c17.6,16.1,26.4,32.5,26.4,49.1
		c0,19.1-8,28.6-24.1,28.6c-6.3,0-12.5-2.2-18.8-6.7c-12.2-39.9-40.2-76.1-84-108.6L571.2,587.1z"/>
</g>
</svg>
