<?xml version="1.0" encoding="utf-8"?>
<!-- Generator: Adobe Illustrator 22.0.1, SVG Export Plug-In . SVG Version: 6.00 Build 0)  -->
<svg version="1.1" id="Слой_1" xmlns="http://www.w3.org/2000/svg" xmlns:xlink="http://www.w3.org/1999/xlink" x="0px" y="0px"
	 viewBox="0 0 1000 1000" style="enable-background:new 0 0 1000 1000;" xml:space="preserve">
<g>
	<path d="M828.1,767.9l86.3,59.6c-7,12.2-21.3,18.2-43.4,18.2H91.5l-5.9-21.2h376.2V489.9H173.8l-5.5-21.2h293.4V183.2H132.4
		l-5.9-20.7h615.8l45.8-56.2l85.3,58.7c-6.6,12.2-20.9,18.2-42.9,18.2h-309v285.4h186.8l44.9-54.3l82.9,56.7
		c-6.6,12.5-20.7,18.7-42.4,18.7H521.5v334.8h260.8L828.1,767.9z M620.5,555.4c53.6,17.1,93.8,39.4,120.8,67
		c22,22,33.1,44.3,33.1,67c0,11.2-2.8,20.4-8.4,27.6c-5.6,7.2-12.7,10.8-21.2,10.8c-8.5,0-16.8-3.4-24.6-10.4
		c-4.9-25.6-18.1-53.6-39.4-83.8c-20.1-28.3-42.3-52-66.6-71L620.5,555.4z"/>
</g>
</svg>
