<?xml version="1.0" encoding="utf-8"?>
<!-- Generator: Adobe Illustrator 23.0.2, SVG Export Plug-In . SVG Version: 6.00 Build 0)  -->
<svg version="1.1" id="Слой_1" xmlns="http://www.w3.org/2000/svg" xmlns:xlink="http://www.w3.org/1999/xlink" x="0px" y="0px"
	 viewBox="0 0 1000 1000" style="enable-background:new 0 0 1000 1000;" xml:space="preserve">
<style type="text/css">
	.st0{fill:#D12222;}
</style>
<g>
	<path class="st0" d="M789.7,776.6l69.7,48.7c-6,10.4-17.9,15.6-35.7,15.6H170.9L166,823h321.3V649.2H234.7l-5.4-17.9h257.8V510.7
		l84.9,7.6c-0.9,10.1-12.7,16.8-35.3,20.1v92.9H703l34.9-45.1l67.9,47.4c-5.1,10.4-17.1,15.6-36.2,15.6H536.8V823H753L789.7,776.6z
		 M196.8,469.2h290.4V311.9H251.7l-4-18.3h239.5V172.9l84.9,7.6c-0.9,10.1-12.7,16.8-35.3,20.1v92.9h148.3l34.8-44.2l66.1,46.5
		c-5.7,10.7-17.4,16.1-35.3,16.1h-214v157.3h190.8l35.3-46l67.5,47.8c-5.4,10.7-17.4,16.1-36.2,16.1H201.7L196.8,469.2z"/>
</g>
</svg>
