<?xml version="1.0" encoding="utf-8"?>
<!-- Generator: Adobe Illustrator 22.0.1, SVG Export Plug-In . SVG Version: 6.00 Build 0)  -->
<svg version="1.1" id="Слой_1" xmlns="http://www.w3.org/2000/svg" xmlns:xlink="http://www.w3.org/1999/xlink" x="0px" y="0px"
	 viewBox="0 0 1000 1000" style="enable-background:new 0 0 1000 1000;" xml:space="preserve">
<g>
	<path d="M858.7,320c-6.2,11.7-18.6,17.5-37.3,17.5h-272c65.9,78.2,172.4,134.6,319.4,169.2l-0.4,8.3c-22.6,3.6-37.2,18.2-43.6,43.6
		c-141.2-49.8-239.8-123.4-295.6-221h-4.8v171.1c0,1.3-1.1,2.8-3.4,4.4c-2.2,2.2-5.2,4.3-8.7,5.8c-9.4,4.8-19.5,7.3-30.5,7.3h-8.3
		V354.4C395.2,450.1,283.7,524.8,139,578.3l-7.7-13.1c119.9-59.2,214.7-135,284.5-227.8H146.6l-5.4-18.9h332V217.6
		c-99.5,9.1-189.4,13.6-269.5,13.6l-1.5-16c200.4-14.2,369.7-41.8,508-82.9l56.3,55.2c-3.2,3.2-8.3,4.8-15,4.8
		c-6.5,0-15.2-2.1-26.2-6.3c-62.3,10.5-129.3,19.4-201,26.9v105.7h228.8l35.9-46.1L858.7,320z M666.2,549.8l23.8-30.5l65.4,47.5
		c-5.8,6.8-16,11.8-30.6,15v263.7c0,1-1,2.2-2.9,3.9c-2.6,2.2-5.6,4.1-9.2,5.8c-10.6,5.2-23.9,7.7-39.8,7.7v-47.5H323.6l-0.4,35.4
		l-1,1.9c-1.9,2.2-4.4,4.4-7.3,6.3c-9.7,5.8-23.9,8.7-42.7,8.7V524.5l56.3,25.2H666.2z M673,569.1H323.6v101.3h349.5V569.1H673z
		 M323.6,796.4h349.5V689.3H323.6V796.4z"/>
</g>
</svg>
