<?xml version="1.0" encoding="utf-8"?>
<!-- Generator: Adobe Illustrator 23.0.2, SVG Export Plug-In . SVG Version: 6.00 Build 0)  -->
<svg version="1.1" id="Слой_1" xmlns="http://www.w3.org/2000/svg" xmlns:xlink="http://www.w3.org/1999/xlink" x="0px" y="0px"
	 viewBox="0 0 1000 1000" style="enable-background:new 0 0 1000 1000;" xml:space="preserve">
<style type="text/css">
	.st0{fill:#D12222;}
</style>
<g>
	<path class="st0" d="M835.2,301.2c-5.7,9.8-17.1,14.7-34.4,14.7H558.2c30.1,40.8,74.3,80.1,132.7,118
		c52.7,34.3,107.2,61.4,163.5,81.3l-1.3,7.6c-20.3,2.1-34.1,14.6-41.6,37.5C684.4,497.2,594,415.7,540.4,315.9H535v218.9l-0.4,1.3
		l-0.9,1.8c-1.8,2.1-4,4-6.7,5.8c-8.9,5.1-21.6,7.6-38,7.6V339.1C419,435.3,317.6,512,184.7,569.2l-7.1-12.1
		c113.8-62,202.7-142.4,266.7-241.3H200.8l-4.9-16.5H489v-125l76,6.7c-0.6,9.8-10.6,15.8-29.9,17.9v100.5h200.6l34.9-44.2
		L835.2,301.2z M678.4,567.5l21.4-27.7l59,42.9c-5.4,6.3-14.6,10.4-27.7,12.5V815l-0.9,0.9l-1.8,1.8c-2.4,1.8-5.1,3.6-8,5.4
		c-10.1,4.5-21.9,6.7-35.3,6.7v-40.2H343.8V819c-4.2,11-19.4,16.5-45.6,16.5V544.7l50.5,22.8H678.4z M343.8,773h341.4V584.9H343.8
		V773z"/>
</g>
</svg>
