<?xml version="1.0" encoding="utf-8"?>
<!-- Generator: Adobe Illustrator 22.0.1, SVG Export Plug-In . SVG Version: 6.00 Build 0)  -->
<svg version="1.1" id="Слой_1" xmlns="http://www.w3.org/2000/svg" xmlns:xlink="http://www.w3.org/1999/xlink" x="0px" y="0px"
	 viewBox="0 0 1000 1000" style="enable-background:new 0 0 1000 1000;" xml:space="preserve">
<g>
	<path d="M796.2,355.6l76,53.3c-7.2,11.2-20.2,16.8-39,16.8H557.3c-2.3,6.6-12.7,11.1-31.2,13.4v202.3c0,24.3-4.5,41.8-13.4,52.3
		c-11.9,14.2-34.4,23.1-67.7,26.7c0-19.4-7.2-32.5-21.7-39.5c-10.2-5.2-30.2-9-60.3-11.3v-12.3h94.7c10.5,0,15.7-5.2,15.7-15.7
		V425.8H133.3l-5.5-19.3h144.6V196.2l83.4,7c-0.7,10.2-11.6,17-33.1,20.2v183.2h151.2v-281l89.8,8.4c-0.7,11.5-12.8,19.1-36.5,22.7
		V250h165.4l38.5-49.4l73,51.8c-7,11.2-19.6,16.8-38,16.8H527.2v137.4h229.5L796.2,355.6z M143.7,663.2
		c70.4-56.6,123.7-125.6,159.9-207.4l76.5,38c-4,6.3-10.4,9.4-19.3,9.4h-5.5l-5.9-0.5c-51,72.4-116.9,129.9-197.4,172.3L143.7,663.2
		z M766.1,619.7c-4,5.9-9.7,8.9-17.2,8.9c-4.9,0-10.7-0.8-17.2-2.5c-73.4,89.1-156.3,152.4-248.8,189.6
		c-73.7,29.7-174.6,49.2-302.5,58.8l-2.5-16.3c121.8-17.5,217.1-42.8,285.8-76c89.1-42.8,166-110.4,230.5-202.9L766.1,619.7z
		 M652.1,463.3c71.1,23.1,125.1,52,161.9,86.8c29.3,27.3,43.9,53.5,43.9,78.5c0,19.7-7.8,29.7-23.2,29.7c-6.3,0-13-2.5-20.2-7.4
		c-11.9-28.6-35-60.8-69.6-96.8c-31.6-32.9-64.4-60.3-98.3-81.9L652.1,463.3z"/>
</g>
</svg>
