<?xml version="1.0" encoding="utf-8"?>
<!-- Generator: Adobe Illustrator 22.0.1, SVG Export Plug-In . SVG Version: 6.00 Build 0)  -->
<svg version="1.1" id="Слой_1" xmlns="http://www.w3.org/2000/svg" xmlns:xlink="http://www.w3.org/1999/xlink" x="0px" y="0px"
	 viewBox="0 0 1000 1000" style="enable-background:new 0 0 1000 1000;" xml:space="preserve">
<g>
	<path d="M866.5,724.5l-8.1,89.7c14.6,12.3,21.9,22.6,21.9,30.8v2.4l-0.5,2.8c-1,2.6-2.2,4.8-3.8,6.7c-4.8,5.7-12.8,8.6-24.2,8.6
		c-15.5,0-33.9-4.9-55.1-14.7c-61.1-24.1-104.7-65.5-131-124.3c-23-51.6-36.7-127.4-41.2-227H502.8v346.6l-0.5,1.5l-1.5,2.4
		c-1.8,2.6-4.4,4.9-7.6,7.1c-9.8,6.4-24.1,9.5-42.7,9.5v-367H312.9c-4.4,173.4-62.3,295.8-173.8,366.9L128.7,856
		c85.7-74.9,130.3-193.8,133.4-356.5H125.4l-5.7-19.4h142.5V331.5c-49.7,26.9-94.2,46.8-133.4,59.8l-7.6-12.3
		c90.9-44,162-97.7,213.6-160.9l71.6,37c-3.5,6-10.4,9-20.9,9c-3.5,0-9-0.6-16.6-1.8c-16.1,13-37,27.6-62.7,44.1l40.8,3.3
		c-1.6,11.1-12.6,17.6-33.2,19.4V480h136.8V215.7l83.1,7.6c-1.3,10.4-11.5,16.6-30.8,18.6v238.3h113.5l24.2-30.8l66.5,49.4
		c-5.7,6.7-16.4,10.8-31.8,12.3c0.6,34.5,2.9,67,7.1,97.4c11.7,1.3,24.5,3.3,38.4,6.1c8.2-12.6,18.8-29.1,31.8-49.4
		c4.4-7.2,9.5-15.7,15.2-25.2l7.1-11.4l6.1-10l60.3,38c-2.6,5-7.1,7.6-13.7,7.6c-1.6,0-6.1-0.6-13.7-1.8
		c-23.1,19-47.7,38.2-73.6,57.4c31.3,9.2,55.4,21.9,72.1,38c13.9,13.6,20.9,27.3,20.9,40.8c0,16.5-7.5,24.7-22.3,24.7
		c-5,0-10.4-1.7-16.1-5.3c-21.2-32.9-57.6-63.7-109.3-92c17.5,94,60.1,152.7,128.2,176.1c4.8,1.6,8.2,2.4,10.4,2.4
		c4,0,7.5-2.8,10-8.6c8.6-20.3,16.6-44.4,24.2-72.1L866.5,724.5z M855.2,460.6c14.3,13.3,21.4,24,21.4,31.8c0,5-2.2,9.5-6.7,13.3
		c-5.4,4.8-12.6,7.1-21.9,7.1c-15.2,0-33.2-5.3-54.1-15.7c-54.1-24.1-94-62.3-119.7-114.9c-23.1-48-37.2-114.3-42.3-198.5H169.5
		l-6.7-19.4h460.6l23.7-30.8l66,47.9c-5.4,6.7-15.7,10.8-30.8,12.3c1,25.9,3.5,50.2,7.6,73.1c11.4,1.3,25.4,3.5,42.3,6.7
		c9.2-12.6,19.9-28.7,32.3-48.4c9.5-14.9,18.8-29.8,28-45.1l58.8,40.8c-2.8,4.2-7.6,6.1-14.3,6.1h-5.7c-2.6-0.4-4.9-0.7-7.1-1.5
		c-18.3,14.9-42.5,32.6-72.7,53.2c28.2,8.6,49.5,20.3,64.1,35.1c12.3,12.3,18.6,25.1,18.6,38c0,16.5-7.5,24.7-22.3,24.7
		c-6,0-11.4-1.5-16.1-4.3c-19.9-33.6-54.4-63.4-103.5-89.7c17.2,87.5,57.1,142.7,119.4,165.9c4.4,2.2,8.1,3.3,10.9,3.3
		c2.7,0,5.5-2.9,8.1-9c8.2-20.5,16-43.3,23.2-68l8.6,1L855.2,460.6z"/>
</g>
</svg>
