<?xml version="1.0" encoding="utf-8"?>
<!-- Generator: Adobe Illustrator 22.0.1, SVG Export Plug-In . SVG Version: 6.00 Build 0)  -->
<svg version="1.1" id="Слой_1" xmlns="http://www.w3.org/2000/svg" xmlns:xlink="http://www.w3.org/1999/xlink" x="0px" y="0px"
	 viewBox="0 0 1000 1000" style="enable-background:new 0 0 1000 1000;" xml:space="preserve">
<g>
	<path d="M122.1,397c65.9-68.5,116.2-157.4,150.7-266.7l86.5,10c-1.3,8.6-11.5,14-30.9,16.2c50.3,22.2,88.1,46.2,113.1,71.8
		c20.2,20.6,30.4,40.2,30.4,58.9c0,21.2-9,31.9-27.1,31.9c-6.7,0-13.3-3-20-9c-18.7-51.7-52.4-99.7-101.2-144.1
		c-50.7,100.8-114.7,180.3-192,238.6L122.1,397z M329.3,747.2c19.3-2.9,42.4-6.4,69.3-10.4l36.2-6.2l37-5.7l2.4,11.9
		c-86.5,28.6-184.3,58-293.3,88.5c-4.2,10.1-10.4,16.2-19,18l-29.5-68.9c21.9-2.2,71-8.7,147.4-19.5V509.1H140.6l-5.7-19h145V373.6
		h-85.1l-5.7-19h172.1l31.9-42.3l61.8,43.7c-6,11.8-18.2,17.6-36.6,17.6h-88.9v116.5h57l31.9-42.3l62.3,43.7
		c-6.4,11.8-18.6,17.6-36.6,17.6H329.3V747.2z M170.1,549.5c48.1,43.4,72.2,85.8,72.2,127.4c0,13.6-2.9,24.8-8.6,33.7
		c-5.4,8.2-12.1,12.3-20,12.3c-6.9,0-13.6-4-20-11.9c1.9-22.9-0.8-49.9-8.1-81.3c-6.7-28.6-15.4-53.7-26.2-75.6L170.1,549.5z
		 M474.7,563.8c-2.2,9.2-11.2,13.7-27.1,13.7c-28.2,60.6-54.4,106.2-78.5,136.9l-13.7-7.1c15.2-38.4,30.6-93.3,46.2-165L474.7,563.8
		z M643,497.2c13,56.7,32.3,107.5,58,152.1c39-31.7,75.9-69.2,110.8-112.6l58.9,50.3c-3.8,3.8-8.4,5.7-13.7,5.7
		c-5.7,0-11.2-1.4-16.6-4.3c-43.7,32.3-87.3,57.7-130.7,76.1c43.7,70.3,99.8,123.4,168.3,159.2l-2.4,7.6
		c-22.9,1.9-38.8,14.7-48,38.5c-40.6-29.8-75-65.4-103.2-106.9c-6,2.2-14.1,5.1-24.3,8.6l-12.3,4.3l-13.3,4.7
		c-21.9,7.9-41.2,14.7-58,20.4c-49.5,16.8-97.5,32.5-144.1,47c-2.9,9.2-8.9,15.1-18,17.6L423.8,797c22.5-2.9,49.6-6.8,81.3-11.9V162
		l58,24.3h200.1l22.9-30.9l63.7,48.5c-5.1,6.9-15.1,11.5-30,13.7v290.5c0,2.5-4.3,5.8-12.9,10c-9.6,4.4-19.3,6.7-29.5,6.7h-8.1
		v-27.6L643,497.2L643,497.2z M769.5,205.9H553.2v126.5h216.3V205.9z M553.2,478.2h216.3V351.3H553.2V478.2z M553.2,497.2v280
		c20.2-3.2,46.2-7.6,77.5-13.3l41.3-7.6l42.8-7.6c-42.2-66.8-71.7-150.7-88.5-251.5h-73.1V497.2z"/>
</g>
</svg>
