<?xml version="1.0" encoding="utf-8"?>
<!-- Generator: Adobe Illustrator 23.0.2, SVG Export Plug-In . SVG Version: 6.00 Build 0)  -->
<svg version="1.1" id="Слой_1" xmlns="http://www.w3.org/2000/svg" xmlns:xlink="http://www.w3.org/1999/xlink" x="0px" y="0px"
	 viewBox="0 0 1000 1000" style="enable-background:new 0 0 1000 1000;" xml:space="preserve">
<style type="text/css">
	.st0{fill:#D12222;}
</style>
<g>
	<path class="st0" d="M143.6,484.4c67.3-40.2,131.4-91.3,192.1-153.3c64.6-65.8,106.6-125.4,126-178.7l99.2,19.2
		c-2.1,8.3-13,13.3-32.6,14.7c85.5,97.7,202.8,178.4,352.1,242.2l-1.3,11.2c-27.4,6-44.4,21.6-50.9,46.9
		c-138.8-75.1-243.4-172.3-313.7-291.8c-34,53.6-85.5,108.7-154.6,165.3c-67.6,55.1-137.6,100.1-210,134.9L143.6,484.4z M745.4,823
		l37.5-49.1l72.4,50.5c-6,11.6-18.6,17.4-38,17.4H176.7l-4.5-18.8h309.2V652.8H256.6l-5.4-18.3h230.1V480.3H269.6l-4.5-18.3h388.7
		l33.5-42.4l65.7,44.2c-4.8,11-16.8,16.5-36.2,16.5H533.2v154.1h143.4l35.7-44.2l68.4,45.6c-6,11.3-18,17-36.2,17H533.2V823H745.4z"
		/>
</g>
</svg>
