<?xml version="1.0" encoding="utf-8"?>
<!-- Generator: Adobe Illustrator 23.0.2, SVG Export Plug-In . SVG Version: 6.00 Build 0)  -->
<svg version="1.1" id="Слой_1" xmlns="http://www.w3.org/2000/svg" xmlns:xlink="http://www.w3.org/1999/xlink" x="0px" y="0px"
	 viewBox="0 0 1000 1000" style="enable-background:new 0 0 1000 1000;" xml:space="preserve">
<style type="text/css">
	.st0{fill:#D12222;}
</style>
<g>
	<path class="st0" d="M608.5,349.4c6.5-13.4,19.7-20.1,39.4-20.1c16.8,0,34.2,7.9,52.4,23.7c17.7,15.9,26.4,30.7,26.4,44.8
		c0,16.4-18.3,29.7-55.1,39.8c-102.1,29.2-188.5,65.7-259.3,109.3C328.1,598.4,286,649.5,286,700c0,40,19.9,67,59.6,81.1
		c28,9.6,75.7,14.3,142.8,14.3c100,0,161.8-8.7,185.4-26l15.6,1.8l14.7,1.3c10.8,1.2,19.2,2.8,25.5,4.9
		c16.1,5.1,24.2,13.6,24.2,25.5c0,13.2-23.4,22.5-70.3,28.2c-11.4,1.2-22.5,2.6-33.6,4c-14.6,1.2-29.5,2.4-44.3,3.6
		c-37.9,2.7-76.2,4-115,4c-83.3,0-144.4-10.5-183.2-31.4c-40.9-22-61.4-58-61.4-108c0-33.2,16.8-68,50.2-104.8
		c30.5-34.1,70.7-65.2,120.9-93.6c-22.9-13.4-37.4-35-43.4-64.4c-4.2-19.7-6.3-61.1-6.3-124c0-2.7,0.3-12.1,0.9-28.2
		c0.6-16.1,0.9-25.6,0.9-28.7v-6.7l-0.9-7.6c-0.6-5.6-2.1-10.5-4.5-14.3c-6-10.8-18.1-16.1-36.3-16.1c-2.7,0-8.2,0.6-16.5,1.8
		l-2.2-5.4c4.2-7.4,10.5-14.2,18.8-20.1c8.7-6,17.2-9,25.5-9c21.5,0,40.7,5.1,57.8,15.2c17.9,10.8,26.9,23.6,26.9,38.5
		c0,2.7-2.2,9.1-6.7,19.2c-2.4,5.4-4.4,9.7-5.8,12.9c-1.8,5.1-2.8,10-3.1,14.7c-3.9,28.3-5.8,60.9-5.8,97.6
		c0,20.6,0.3,35.6,0.9,45.2c0.9,13.7,5.4,26.3,13.4,37.6c7.8,11,16.1,17.8,25.1,20.1c44.5-23.6,97.7-49.4,159.9-77.5
		c24.5-10.8,36.8-21.5,36.8-32.3c0-6-4-11.2-12.1-15.6c-8.7-5.4-18.2-7.3-28.7-5.8L608.5,349.4z"/>
</g>
</svg>
